<svg width="9803" height="3750" viewBox="0 0 9803 3750" fill="none" xmlns="http://www.w3.org/2000/svg">
<path d="M0 1425H150V1575H0V1425Z" fill="black"/>
<path d="M0 1575H150V1725H0V1575Z" fill="black"/>
<path d="M150 1425H300V1575H150V1425Z" fill="black"/>
<path d="M150 1575H300V1725H150V1575Z" fill="black"/>
<path d="M150 1725H300V1875H150V1725Z" fill="black"/>
<path d="M300 1725H450V1875H300V1725Z" fill="black"/>
<path d="M300 1875H450V2025H300V1875Z" fill="black"/>
<path d="M450 1875H600V2025H450V1875Z" fill="black"/>
<path d="M450 2025H600V2175H450V2025Z" fill="black"/>
<path d="M600 2025H750V2175H600V2025Z" fill="black"/>
<path d="M600 2175H750V2325H600V2175Z" fill="black"/>
<path d="M750 2175H900V2325H750V2175Z" fill="black"/>
<path d="M900 2175H1050V2325H900V2175Z" fill="black"/>
<path d="M1050 2175H1200V2325H1050V2175Z" fill="black"/>
<path d="M1200 2175H1350V2325H1200V2175Z" fill="black"/>
<path d="M1350 2175H1500V2325H1350V2175Z" fill="black"/>
<path d="M1200 2025H1350V2175H1200V2025Z" fill="black"/>
<path d="M1350 2025H1500V2175H1350V2025Z" fill="black"/>
<path d="M900 2025H1050V2175H900V2025Z" fill="black"/>
<path d="M750 1875H900V2025H750V1875Z" fill="black"/>
<path d="M600 1725H750V1875H600V1725Z" fill="black"/>
<path d="M1500 2025H1650V2175H1500V2025Z" fill="black"/>
<path d="M1050 1875H1200V2025H1050V1875Z" fill="black"/>
<path d="M1200 1875H1350V2025H1200V1875Z" fill="black"/>
<path d="M1350 1875H1500V2025H1350V1875Z" fill="black"/>
<path d="M1500 1875H1650V2025H1500V1875Z" fill="black"/>
<path d="M1650 1875H1800V2025H1650V1875Z" fill="black"/>
<path d="M1050 1725H1200V1875H1050V1725Z" fill="black"/>
<path d="M900 1725H1050V1875H900V1725Z" fill="black"/>
<path d="M1200 1725H1350V1875H1200V1725Z" fill="black"/>
<path d="M1350 1725H1500V1875H1350V1725Z" fill="black"/>
<path d="M1500 1725H1650V1875H1500V1725Z" fill="black"/>
<path d="M1650 1725H1800V1875H1650V1725Z" fill="black"/>
<path d="M2250 1725H2400V1875H2250V1725Z" fill="black"/>
<path d="M2400 1725H2550V1875H2400V1725Z" fill="black"/>
<path d="M2400 1875H2550V2025H2400V1875Z" fill="black"/>
<path d="M2550 1875H2700V2025H2550V1875Z" fill="black"/>
<path d="M2550 2025H2700V2175H2550V2025Z" fill="black"/>
<path d="M2700 2025H2850V2175H2700V2025Z" fill="black"/>
<path d="M2700 2175H2850V2325H2700V2175Z" fill="black"/>
<path d="M2850 2175H3000V2325H2850V2175Z" fill="black"/>
<path d="M3000 2175H3150V2325H3000V2175Z" fill="black"/>
<path d="M3150 2175H3300V2325H3150V2175Z" fill="black"/>
<path d="M3300 2175H3450V2325H3300V2175Z" fill="black"/>
<path d="M3450 2175H3600V2325H3450V2175Z" fill="black"/>
<path d="M3300 2025H3450V2175H3300V2025Z" fill="black"/>
<path d="M3450 2025H3600V2175H3450V2025Z" fill="black"/>
<path d="M3000 2025H3150V2175H3000V2025Z" fill="black"/>
<path d="M2850 1875H3000V2025H2850V1875Z" fill="black"/>
<path d="M2700 1725H2850V1875H2700V1725Z" fill="black"/>
<path d="M3600 2025H3750V2175H3600V2025Z" fill="black"/>
<path d="M3150 1875H3300V2025H3150V1875Z" fill="black"/>
<path d="M3300 1875H3450V2025H3300V1875Z" fill="black"/>
<path d="M3450 1875H3600V2025H3450V1875Z" fill="black"/>
<path d="M3600 1875H3750V2025H3600V1875Z" fill="black"/>
<path d="M3750 1875H3900V2025H3750V1875Z" fill="black"/>
<path d="M3150 1725H3300V1875H3150V1725Z" fill="black"/>
<path d="M3000 1725H3150V1875H3000V1725Z" fill="black"/>
<path d="M3300 1725H3450V1875H3300V1725Z" fill="black"/>
<path d="M3450 1725H3600V1875H3450V1725Z" fill="black"/>
<path d="M3600 1725H3750V1875H3600V1725Z" fill="black"/>
<path d="M3750 1725H3900V1875H3750V1725Z" fill="black"/>
<path d="M300 1425H450V1575H300V1425Z" fill="black"/>
<path d="M300 1575H450V1725H300V1575Z" fill="black"/>
<path d="M450 1425H600V1575H450V1425Z" fill="black"/>
<path d="M450 1575H600V1725H450V1575Z" fill="black"/>
<path d="M600 1425H750V1575H600V1425Z" fill="black"/>
<path d="M600 1575H750V1725H600V1575Z" fill="black"/>
<path d="M750 1425H900V1575H750V1425Z" fill="black"/>
<path d="M750 1575H900V1725H750V1575Z" fill="black"/>
<path d="M900 1425H1050V1575H900V1425Z" fill="black"/>
<path d="M900 1575H1050V1725H900V1575Z" fill="black"/>
<path d="M1050 1425H1200V1575H1050V1425Z" fill="black"/>
<path d="M1050 1575H1200V1725H1050V1575Z" fill="black"/>
<path d="M1200 1425H1350V1575H1200V1425Z" fill="black"/>
<path d="M1200 1575H1350V1725H1200V1575Z" fill="black"/>
<path d="M1350 1425H1500V1575H1350V1425Z" fill="black"/>
<path d="M1350 1575H1500V1725H1350V1575Z" fill="black"/>
<path d="M1500 1425H1650V1575H1500V1425Z" fill="black"/>
<path d="M1500 1575H1650V1725H1500V1575Z" fill="black"/>
<path d="M1650 1425H1800V1575H1650V1425Z" fill="black"/>
<path d="M1650 1575H1800V1725H1650V1575Z" fill="black"/>
<path d="M1800 1575H1950V1725H1800V1575Z" fill="black"/>
<path d="M1800 1725H1950V1875H1800V1725Z" fill="black"/>
<path d="M1800 1425H1950V1575H1800V1425Z" fill="black"/>
<path d="M1950 1425H2100V1575H1950V1425Z" fill="black"/>
<path d="M2100 1425H2250V1575H2100V1425Z" fill="black"/>
<path d="M2250 1425H2400V1575H2250V1425Z" fill="black"/>
<path d="M2250 1575H2400V1725H2250V1575Z" fill="black"/>
<path d="M2400 1425H2550V1575H2400V1425Z" fill="black"/>
<path d="M2400 1575H2550V1725H2400V1575Z" fill="black"/>
<path d="M2550 1425H2700V1575H2550V1425Z" fill="black"/>
<path d="M2550 1575H2700V1725H2550V1575Z" fill="black"/>
<path d="M2700 1425H2850V1575H2700V1425Z" fill="black"/>
<path d="M2700 1575H2850V1725H2700V1575Z" fill="black"/>
<path d="M2850 1425H3000V1575H2850V1425Z" fill="black"/>
<path d="M2850 1575H3000V1725H2850V1575Z" fill="black"/>
<path d="M3000 1425H3150V1575H3000V1425Z" fill="black"/>
<path d="M3000 1575H3150V1725H3000V1575Z" fill="black"/>
<path d="M3150 1425H3300V1575H3150V1425Z" fill="black"/>
<path d="M3150 1575H3300V1725H3150V1575Z" fill="black"/>
<path d="M3300 1425H3450V1575H3300V1425Z" fill="black"/>
<path d="M3300 1575H3450V1725H3300V1575Z" fill="black"/>
<path d="M3450 1425H3600V1575H3450V1425Z" fill="black"/>
<path d="M3450 1575H3600V1725H3450V1575Z" fill="black"/>
<path d="M3600 1425H3750V1575H3600V1425Z" fill="black"/>
<path d="M3600 1575H3750V1725H3600V1575Z" fill="black"/>
<path d="M3750 1425H3900V1575H3750V1425Z" fill="black"/>
<path d="M3750 1575H3900V1725H3750V1575Z" fill="black"/>
<path d="M3900 1425H4050V1575H3900V1425Z" fill="black"/>
<path d="M3900 1575H4050V1725H3900V1575Z" fill="black"/>
<path d="M3900 1725H4050V1875H3900V1725Z" fill="black"/>
<path d="M4050 1425H4200V1575H4050V1425Z" fill="black"/>
<path d="M4050 1575H4200V1725H4050V1575Z" fill="black"/>
<path d="M5925 2301C5921 2311 5916 2324 5910 2340C5904 2354 5897 2369 5889 2385C5883 2401 5877 2417 5871 2433C5865 2449 5861 2461 5859 2469C5843 2527 5831 2567 5823 2589C5817 2609 5809 2627 5799 2643C5797 2647 5792 2656 5784 2670C5776 2684 5770 2693 5766 2697C5756 2699 5751 2699 5751 2697C5753 2697 5746 2697 5730 2697C5720 2697 5707 2699 5691 2703C5677 2707 5660 2709 5640 2709C5632 2709 5620 2708 5604 2706C5590 2704 5575 2703 5559 2703C5551 2703 5546 2702 5544 2700C5542 2698 5537 2697 5529 2697C5519 2695 5506 2694 5490 2694C5476 2694 5464 2694 5454 2694C5438 2694 5424 2693 5412 2691C5402 2691 5389 2691 5373 2691C5363 2683 5356 2674 5352 2664C5350 2656 5345 2647 5337 2637C5329 2601 5319 2569 5307 2541C5297 2511 5285 2481 5271 2451C5261 2435 5253 2420 5247 2406C5241 2390 5238 2378 5238 2370C5238 2372 5234 2366 5226 2352C5220 2338 5215 2326 5211 2316C5201 2292 5188 2254 5172 2202C5156 2150 5138 2104 5118 2064C5104 2030 5089 1992 5073 1950C5059 1908 5044 1870 5028 1836L4950 1611C4944 1597 4937 1586 4929 1578C4923 1568 4918 1556 4914 1542C4910 1530 4905 1518 4899 1506C4895 1492 4893 1480 4893 1470C4885 1462 4880 1451 4878 1437C4876 1421 4871 1409 4863 1401C4855 1367 4847 1337 4839 1311C4831 1283 4822 1257 4812 1233C4804 1207 4796 1186 4788 1170C4780 1152 4772 1132 4764 1110C4764 1106 4764 1101 4764 1095C4764 1089 4769 1084 4779 1080C4795 1072 4809 1064 4821 1056C4833 1048 4847 1039 4863 1029C4879 1021 4898 1012 4920 1002C4944 992 4964 978 4980 960C4990 950 5001 943 5013 939C5025 935 5036 931 5046 927C5056 921 5061 918 5061 918C5061 916 5066 915 5076 915L5085 927L5133 1014C5139 1024 5146 1043 5154 1071C5164 1097 5173 1121 5181 1143L5238 1302C5240 1306 5245 1320 5253 1344C5263 1368 5274 1399 5286 1437L5313 1545L5349 1626C5357 1642 5363 1660 5367 1680C5371 1700 5376 1718 5382 1734C5392 1756 5398 1775 5400 1791C5402 1807 5404 1819 5406 1827C5430 1901 5455 1975 5481 2049C5509 2121 5546 2193 5592 2265C5592 2257 5595 2252 5601 2250C5607 2248 5610 2243 5610 2235C5618 2199 5632 2167 5652 2139C5672 2109 5687 2072 5697 2028C5699 2022 5701 2012 5703 1998C5705 1984 5708 1974 5712 1968C5724 1946 5732 1921 5736 1893C5740 1865 5753 1836 5775 1806L5808 1716C5820 1686 5830 1661 5838 1641C5846 1621 5853 1600 5859 1578C5869 1562 5876 1543 5880 1521C5886 1499 5892 1477 5898 1455C5902 1437 5907 1420 5913 1404C5921 1386 5927 1369 5931 1353C5935 1339 5939 1328 5943 1320C5949 1310 5954 1298 5958 1284C5962 1272 5967 1260 5973 1248C5981 1234 5986 1222 5988 1212L6024 1110C6030 1100 6033 1087 6033 1071C6035 1053 6040 1039 6048 1029C6058 1013 6064 1000 6066 990C6068 978 6073 962 6081 942C6081 938 6084 934 6090 930C6092 928 6095 927 6099 927H6135C6161 943 6181 953 6195 957C6211 961 6233 971 6261 987C6279 993 6300 1002 6324 1014C6350 1026 6371 1037 6387 1047L6420 1080C6420 1088 6417 1096 6411 1104C6407 1112 6405 1121 6405 1131C6395 1149 6386 1167 6378 1185C6372 1201 6364 1222 6354 1248L6327 1323C6321 1357 6308 1390 6288 1422C6268 1452 6256 1474 6252 1488C6244 1518 6232 1547 6216 1575C6200 1601 6184 1632 6168 1668C6158 1688 6149 1713 6141 1743C6135 1771 6128 1793 6120 1809C6110 1825 6103 1841 6099 1857C6097 1871 6091 1884 6081 1896C6077 1902 6073 1915 6069 1935C6065 1953 6061 1967 6057 1977C6055 1981 6050 1991 6042 2007C6036 2021 6030 2038 6024 2058C6016 2082 6009 2102 6003 2118C5997 2134 5993 2144 5991 2148L5925 2301ZM6891.73 2376C6891.73 2380 6891.73 2388 6891.73 2400C6891.73 2410 6891.73 2422 6891.73 2436C6891.73 2448 6891.73 2460 6891.73 2472C6891.73 2484 6891.73 2493 6891.73 2499C6891.73 2553 6891.73 2590 6891.73 2610C6893.73 2630 6894.73 2654 6894.73 2682C6894.73 2688 6890.73 2693 6882.73 2697C6876.73 2703 6869.73 2707 6861.73 2709H6669.73V2676L6654.73 2463C6654.73 2425 6653.73 2388 6651.73 2352C6651.73 2316 6650.73 2280 6648.73 2244V2163C6648.73 2135 6647.73 2108 6645.73 2082C6643.73 2054 6644.73 2026 6648.73 1998V1896C6648.73 1860 6647.73 1825 6645.73 1791C6645.73 1755 6644.73 1720 6642.73 1686C6642.73 1676 6642.73 1668 6642.73 1662C6644.73 1654 6645.73 1645 6645.73 1635C6645.73 1593 6644.73 1555 6642.73 1521C6642.73 1487 6642.73 1454 6642.73 1422C6642.73 1388 6642.73 1353 6642.73 1317C6642.73 1281 6641.73 1241 6639.73 1197V1113C6637.73 1091 6635.73 1069 6633.73 1047C6633.73 1023 6633.73 1000 6633.73 978V969C6633.73 961 6634.73 954 6636.73 948C6638.73 946 6649.73 943 6669.73 939C6679.73 937 6692.73 937 6708.73 939C6722.73 943 6739.73 945 6759.73 945C6779.73 943 6801.73 942 6825.73 942C6845.73 942 6861.73 944 6873.73 948C6887.73 952 6894.73 956 6894.73 960V1428C6892.73 1444 6891.73 1460 6891.73 1476C6893.73 1490 6893.73 1505 6891.73 1521C6889.73 1543 6888.73 1565 6888.73 1587C6890.73 1609 6891.73 1631 6891.73 1653V1704C6891.73 1710 6891.73 1717 6891.73 1725C6891.73 1731 6890.73 1738 6888.73 1746C6886.73 1750 6885.73 1758 6885.73 1770C6885.73 1780 6885.73 1791 6885.73 1803C6887.73 1815 6888.73 1827 6888.73 1839C6890.73 1851 6891.73 1859 6891.73 1863C6893.73 1917 6892.73 1949 6888.73 1959C6886.73 1969 6885.73 1977 6885.73 1983C6883.73 2011 6883.73 2039 6885.73 2067C6889.73 2095 6891.73 2123 6891.73 2151C6893.73 2189 6893.73 2227 6891.73 2265C6891.73 2301 6891.73 2338 6891.73 2376ZM8144.93 2037C8150.93 2043 8154.93 2053 8156.93 2067C8158.93 2079 8159.93 2092 8159.93 2106C8161.93 2118 8162.93 2130 8162.93 2142C8162.93 2152 8162.93 2160 8162.93 2166C8166.93 2194 8165.93 2226 8159.93 2262C8155.93 2298 8145.93 2329 8129.93 2355L8090.93 2421C8074.93 2445 8060.93 2462 8048.93 2472C8038.93 2480 8024.93 2495 8006.93 2517C7998.93 2529 7988.93 2540 7976.93 2550C7964.93 2558 7953.93 2567 7943.93 2577L7883.93 2604C7867.93 2612 7849.93 2619 7829.93 2625C7811.93 2631 7794.93 2634 7778.93 2634C7728.93 2642 7678.93 2650 7628.93 2658C7578.93 2666 7527.93 2670 7475.93 2670C7459.93 2670 7440.93 2670 7418.93 2670C7396.93 2672 7377.93 2673 7361.93 2673C7345.93 2675 7327.93 2672 7307.93 2664C7289.93 2658 7274.93 2655 7262.93 2655L7172.93 2646C7162.93 2644 7148.93 2642 7130.93 2640C7112.93 2638 7096.93 2637 7082.93 2637V2565C7084.93 2555 7085.93 2545 7085.93 2535C7085.93 2523 7085.93 2511 7085.93 2499C7083.93 2477 7083.93 2456 7085.93 2436C7087.93 2414 7087.93 2392 7085.93 2370C7083.93 2360 7082.93 2350 7082.93 2340C7082.93 2328 7082.93 2317 7082.93 2307C7084.93 2287 7083.93 2267 7079.93 2247C7075.93 2227 7075.93 2207 7079.93 2187C7087.93 2151 7090.93 2115 7088.93 2079C7086.93 2043 7084.93 2004 7082.93 1962C7080.93 1942 7079.93 1923 7079.93 1905C7079.93 1887 7079.93 1869 7079.93 1851L7082.93 1701C7082.93 1689 7082.93 1673 7082.93 1653C7082.93 1633 7081.93 1613 7079.93 1593C7079.93 1571 7078.93 1551 7076.93 1533C7076.93 1515 7076.93 1502 7076.93 1494C7072.93 1476 7072.93 1456 7076.93 1434C7078.93 1420 7079.93 1405 7079.93 1389C7081.93 1373 7082.93 1357 7082.93 1341C7086.93 1309 7087.93 1272 7085.93 1230C7085.93 1186 7085.93 1147 7085.93 1113C7085.93 1089 7086.93 1067 7088.93 1047C7090.93 1027 7092.93 1014 7094.93 1008C7092.93 980 7092.93 958 7094.93 942C7096.93 926 7097.93 913 7097.93 903H7415.93C7455.93 903 7496.93 906 7538.93 912C7580.93 916 7622.93 920 7664.93 924C7682.93 928 7695.93 932 7703.93 936C7717.93 940 7729.93 943 7739.93 945C7749.93 947 7758.93 950 7766.93 954C7776.93 964 7789.93 974 7805.93 984C7821.93 994 7836.93 1004 7850.93 1014C7866.93 1022 7880.93 1032 7892.93 1044C7906.93 1054 7915.93 1065 7919.93 1077C7923.93 1087 7928.93 1098 7934.93 1110C7942.93 1120 7948.93 1130 7952.93 1140C7958.93 1164 7962.93 1196 7964.93 1236C7968.93 1274 7968.93 1313 7964.93 1353C7960.93 1393 7952.93 1431 7940.93 1467C7930.93 1503 7915.93 1531 7895.93 1551C7873.93 1581 7850.93 1606 7826.93 1626C7804.93 1644 7784.93 1658 7766.93 1668C7756.93 1668 7747.93 1671 7739.93 1677C7731.93 1681 7723.93 1683 7715.93 1683C7731.93 1693 7744.93 1699 7754.93 1701C7764.93 1701 7777.93 1706 7793.93 1716C7797.93 1716 7804.93 1718 7814.93 1722C7824.93 1726 7831.93 1728 7835.93 1728C7851.93 1728 7867.93 1733 7883.93 1743C7901.93 1753 7923.93 1764 7949.93 1776C7955.93 1780 7963.93 1786 7973.93 1794C7985.93 1800 7997.93 1808 8009.93 1818C8021.93 1826 8032.93 1834 8042.93 1842C8052.93 1850 8059.93 1857 8063.93 1863C8079.93 1879 8087.93 1890 8087.93 1896C8087.93 1902 8094.93 1914 8108.93 1932C8120.93 1948 8128.93 1964 8132.93 1980C8136.93 1996 8140.93 2015 8144.93 2037ZM7418.93 2430C7426.93 2430 7438.93 2429 7454.93 2427C7472.93 2425 7489.93 2423 7505.93 2421C7523.93 2419 7539.93 2418 7553.93 2418C7567.93 2416 7574.93 2415 7574.93 2415C7588.93 2411 7601.93 2408 7613.93 2406C7627.93 2402 7640.93 2398 7652.93 2394C7684.93 2380 7706.93 2363 7718.93 2343C7732.93 2323 7746.93 2298 7760.93 2268C7770.93 2246 7776.93 2222 7778.93 2196C7782.93 2170 7783.93 2146 7781.93 2124C7781.93 2110 7781.93 2097 7781.93 2085C7781.93 2073 7780.93 2060 7778.93 2046C7778.93 2028 7775.93 2007 7769.93 1983C7765.93 1957 7755.93 1938 7739.93 1926C7725.93 1904 7699.93 1887 7661.93 1875C7623.93 1861 7591.93 1852 7565.93 1848C7547.93 1848 7530.93 1848 7514.93 1848C7500.93 1846 7488.93 1841 7478.93 1833H7286.93C7288.93 1837 7288.93 1846 7286.93 1860C7286.93 1874 7286.93 1883 7286.93 1887C7286.93 1933 7284.93 1980 7280.93 2028C7276.93 2074 7275.93 2116 7277.93 2154L7283.93 2292C7283.93 2296 7283.93 2304 7283.93 2316C7283.93 2328 7283.93 2341 7283.93 2355C7283.93 2369 7283.93 2382 7283.93 2394C7283.93 2404 7283.93 2411 7283.93 2415C7307.93 2419 7330.93 2422 7352.93 2424C7374.93 2426 7396.93 2428 7418.93 2430ZM7379.93 1503C7387.93 1503 7398.93 1499 7412.93 1491C7428.93 1481 7440.93 1468 7448.93 1452C7458.93 1436 7468.93 1416 7478.93 1392C7488.93 1368 7488.93 1344 7478.93 1320C7478.93 1294 7471.93 1268 7457.93 1242C7443.93 1216 7422.93 1198 7394.93 1188C7386.93 1188 7381.93 1188 7379.93 1188C7377.93 1186 7372.93 1185 7364.93 1185C7356.93 1189 7351.93 1190 7349.93 1188C7347.93 1186 7341.93 1185 7331.93 1185H7313.93C7313.93 1237 7311.93 1290 7307.93 1344C7303.93 1398 7305.93 1451 7313.93 1503H7379.93ZM9558.12 981C9550.12 1007 9548.12 1035 9552.12 1065C9556.12 1095 9558.12 1124 9558.12 1152C9550.12 1152 9535.12 1155 9513.12 1161C9493.12 1165 9474.12 1168 9456.12 1170C9448.12 1170 9439.12 1170 9429.12 1170C9419.12 1168 9411.12 1168 9405.12 1170L9348.12 1182H9180.12C9138.12 1184 9100.12 1185 9066.12 1185C9034.12 1183 8997.12 1182 8955.12 1182C8947.12 1182 8935.12 1183 8919.12 1185C8905.12 1187 8895.12 1187 8889.12 1185C8889.12 1195 8888.12 1203 8886.12 1209C8884.12 1215 8883.12 1223 8883.12 1233C8885.12 1239 8886.12 1254 8886.12 1278C8888.12 1302 8889.12 1329 8889.12 1359C8891.12 1387 8892.12 1413 8892.12 1437C8894.12 1461 8895.12 1476 8895.12 1482V1617C8895.12 1633 8895.12 1646 8895.12 1656C8897.12 1666 8900.12 1680 8904.12 1698H9078.12C9110.12 1698 9140.12 1699 9168.12 1701C9196.12 1703 9227.12 1704 9261.12 1704C9279.12 1704 9300.12 1705 9324.12 1707C9350.12 1709 9370.12 1708 9384.12 1704C9386.12 1722 9388.12 1741 9390.12 1761C9392.12 1781 9393.12 1799 9393.12 1815V1863C9385.12 1863 9370.12 1864 9348.12 1866C9326.12 1868 9306.12 1870 9288.12 1872H9162.12C9122.12 1878 9085.12 1881 9051.12 1881C9017.12 1881 8979.12 1881 8937.12 1881C8929.12 1881 8919.12 1882 8907.12 1884C8895.12 1886 8886.12 1886 8880.12 1884V1995C8880.12 2023 8880.12 2052 8880.12 2082C8882.12 2112 8886.12 2138 8892.12 2160C8892.12 2196 8892.12 2230 8892.12 2262C8894.12 2292 8895.12 2320 8895.12 2346V2397C8899.12 2395 8911.12 2396 8931.12 2400C8953.12 2404 8979.12 2408 9009.12 2412C9039.12 2416 9064.12 2419 9084.12 2421C9106.12 2423 9126.12 2427 9144.12 2433C9154.12 2437 9175.12 2440 9207.12 2442C9241.12 2442 9263.12 2442 9273.12 2442C9323.12 2448 9372.12 2452 9420.12 2454C9468.12 2456 9517.12 2459 9567.12 2463H9675.12C9683.12 2463 9692.12 2462 9702.12 2460C9712.12 2456 9719.12 2454 9723.12 2454C9733.12 2490 9738.12 2525 9738.12 2559C9740.12 2593 9741.12 2627 9741.12 2661C9725.12 2671 9705.12 2676 9681.12 2676C9657.12 2676 9634.12 2677 9612.12 2679C9598.12 2679 9583.12 2678 9567.12 2676C9551.12 2674 9535.12 2673 9519.12 2673C9479.12 2675 9431.12 2675 9375.12 2673C9321.12 2671 9274.12 2672 9234.12 2676H9189.12C9167.12 2672 9136.12 2669 9096.12 2667C9058.12 2665 9029.12 2664 9009.12 2664C8987.12 2662 8952.12 2662 8904.12 2664C8856.12 2668 8776.12 2671 8664.12 2673C8660.12 2673 8646.12 2673 8622.12 2673C8600.12 2673 8575.12 2673 8547.12 2673C8521.12 2675 8496.12 2676 8472.12 2676C8450.12 2678 8437.12 2679 8433.12 2679C8433.12 2637 8430.12 2596 8424.12 2556C8420.12 2516 8418.12 2479 8418.12 2445C8418.12 2425 8417.12 2402 8415.12 2376C8413.12 2350 8414.12 2328 8418.12 2310C8422.12 2246 8423.12 2183 8421.12 2121C8421.12 2059 8421.12 1996 8421.12 1932C8421.12 1918 8420.12 1893 8418.12 1857C8416.12 1821 8416.12 1787 8418.12 1755L8412.12 1662C8410.12 1648 8411.12 1623 8415.12 1587C8421.12 1549 8423.12 1516 8421.12 1488C8419.12 1442 8417.12 1402 8415.12 1368C8413.12 1332 8411.12 1290 8409.12 1242C8407.12 1200 8407.12 1159 8409.12 1119C8413.12 1077 8415.12 1037 8415.12 999C8415.12 989 8415.12 981 8415.12 975C8417.12 967 8423.12 959 8433.12 951L8586.12 957C8616.12 959 8650.12 959 8688.12 957C8728.12 955 8763.12 955 8793.12 957C8801.12 957 8808.12 957 8814.12 957C8822.12 955 8830.12 954 8838.12 954C8844.12 954 8857.12 954 8877.12 954C8897.12 954 8918.12 954 8940.12 954C8962.12 954 8982.12 954 9000.12 954C9018.12 954 9029.12 955 9033.12 957C9037.12 959 9049.12 961 9069.12 963C9089.12 965 9104.12 966 9114.12 966C9120.12 966 9129.12 966 9141.12 966C9153.12 964 9165.12 963 9177.12 963C9191.12 963 9204.12 963 9216.12 963C9228.12 963 9237.12 963 9243.12 963C9265.12 967 9285.12 969 9303.12 969C9323.12 967 9344.12 967 9366.12 969C9368.12 969 9378.12 970 9396.12 972C9416.12 972 9438.12 973 9462.12 975C9486.12 977 9507.12 979 9525.12 981C9545.12 981 9556.12 981 9558.12 981Z" fill="black"/>
</svg>
