<svg width="4200" height="900" viewBox="0 0 4200 900" fill="none" xmlns="http://www.w3.org/2000/svg">
<path d="M0 0H150V150H0V0Z" fill="black"/>
<path d="M0 150H150V300H0V150Z" fill="black"/>
<path d="M150 0H300V150H150V0Z" fill="black"/>
<path d="M150 150H300V300H150V150Z" fill="black"/>
<path d="M150 300H300V450H150V300Z" fill="black"/>
<path d="M300 300H450V450H300V300Z" fill="black"/>
<path d="M300 450H450V600H300V450Z" fill="black"/>
<path d="M450 450H600V600H450V450Z" fill="black"/>
<path d="M450 600H600V750H450V600Z" fill="black"/>
<path d="M600 600H750V750H600V600Z" fill="black"/>
<path d="M600 750H750V900H600V750Z" fill="black"/>
<path d="M750 750H900V900H750V750Z" fill="black"/>
<path d="M900 750H1050V900H900V750Z" fill="black"/>
<path d="M1050 750H1200V900H1050V750Z" fill="black"/>
<path d="M1200 750H1350V900H1200V750Z" fill="black"/>
<path d="M1350 750H1500V900H1350V750Z" fill="black"/>
<path d="M1200 600H1350V750H1200V600Z" fill="black"/>
<path d="M1350 600H1500V750H1350V600Z" fill="black"/>
<path d="M900 600H1050V750H900V600Z" fill="black"/>
<path d="M750 450H900V600H750V450Z" fill="black"/>
<path d="M600 300H750V450H600V300Z" fill="black"/>
<path d="M1500 600H1650V750H1500V600Z" fill="black"/>
<path d="M1050 450H1200V600H1050V450Z" fill="black"/>
<path d="M1200 450H1350V600H1200V450Z" fill="black"/>
<path d="M1350 450H1500V600H1350V450Z" fill="black"/>
<path d="M1500 450H1650V600H1500V450Z" fill="black"/>
<path d="M1650 450H1800V600H1650V450Z" fill="black"/>
<path d="M1050 300H1200V450H1050V300Z" fill="black"/>
<path d="M900 300H1050V450H900V300Z" fill="black"/>
<path d="M1200 300H1350V450H1200V300Z" fill="black"/>
<path d="M1350 300H1500V450H1350V300Z" fill="black"/>
<path d="M1500 300H1650V450H1500V300Z" fill="black"/>
<path d="M1650 300H1800V450H1650V300Z" fill="black"/>
<path d="M2250 300H2400V450H2250V300Z" fill="black"/>
<path d="M2400 300H2550V450H2400V300Z" fill="black"/>
<path d="M2400 450H2550V600H2400V450Z" fill="black"/>
<path d="M2550 450H2700V600H2550V450Z" fill="black"/>
<path d="M2550 600H2700V750H2550V600Z" fill="black"/>
<path d="M2700 600H2850V750H2700V600Z" fill="black"/>
<path d="M2700 750H2850V900H2700V750Z" fill="black"/>
<path d="M2850 750H3000V900H2850V750Z" fill="black"/>
<path d="M3000 750H3150V900H3000V750Z" fill="black"/>
<path d="M3150 750H3300V900H3150V750Z" fill="black"/>
<path d="M3300 750H3450V900H3300V750Z" fill="black"/>
<path d="M3450 750H3600V900H3450V750Z" fill="black"/>
<path d="M3300 600H3450V750H3300V600Z" fill="black"/>
<path d="M3450 600H3600V750H3450V600Z" fill="black"/>
<path d="M3000 600H3150V750H3000V600Z" fill="black"/>
<path d="M2850 450H3000V600H2850V450Z" fill="black"/>
<path d="M2700 300H2850V450H2700V300Z" fill="black"/>
<path d="M3600 600H3750V750H3600V600Z" fill="black"/>
<path d="M3150 450H3300V600H3150V450Z" fill="black"/>
<path d="M3300 450H3450V600H3300V450Z" fill="black"/>
<path d="M3450 450H3600V600H3450V450Z" fill="black"/>
<path d="M3600 450H3750V600H3600V450Z" fill="black"/>
<path d="M3750 450H3900V600H3750V450Z" fill="black"/>
<path d="M3150 300H3300V450H3150V300Z" fill="black"/>
<path d="M3000 300H3150V450H3000V300Z" fill="black"/>
<path d="M3300 300H3450V450H3300V300Z" fill="black"/>
<path d="M3450 300H3600V450H3450V300Z" fill="black"/>
<path d="M3600 300H3750V450H3600V300Z" fill="black"/>
<path d="M3750 300H3900V450H3750V300Z" fill="black"/>
<path d="M300 0H450V150H300V0Z" fill="black"/>
<path d="M300 150H450V300H300V150Z" fill="black"/>
<path d="M450 0H600V150H450V0Z" fill="black"/>
<path d="M450 150H600V300H450V150Z" fill="black"/>
<path d="M600 0H750V150H600V0Z" fill="black"/>
<path d="M600 150H750V300H600V150Z" fill="black"/>
<path d="M750 0H900V150H750V0Z" fill="black"/>
<path d="M750 150H900V300H750V150Z" fill="black"/>
<path d="M900 0H1050V150H900V0Z" fill="black"/>
<path d="M900 150H1050V300H900V150Z" fill="black"/>
<path d="M1050 0H1200V150H1050V0Z" fill="black"/>
<path d="M1050 150H1200V300H1050V150Z" fill="black"/>
<path d="M1200 0H1350V150H1200V0Z" fill="black"/>
<path d="M1200 150H1350V300H1200V150Z" fill="black"/>
<path d="M1350 0H1500V150H1350V0Z" fill="black"/>
<path d="M1350 150H1500V300H1350V150Z" fill="black"/>
<path d="M1500 0H1650V150H1500V0Z" fill="black"/>
<path d="M1500 150H1650V300H1500V150Z" fill="black"/>
<path d="M1650 0H1800V150H1650V0Z" fill="black"/>
<path d="M1650 150H1800V300H1650V150Z" fill="black"/>
<path d="M1800 150H1950V300H1800V150Z" fill="black"/>
<path d="M1800 300H1950V450H1800V300Z" fill="black"/>
<path d="M1800 0H1950V150H1800V0Z" fill="black"/>
<path d="M1950 0H2100V150H1950V0Z" fill="black"/>
<path d="M2100 0H2250V150H2100V0Z" fill="black"/>
<path d="M2250 0H2400V150H2250V0Z" fill="black"/>
<path d="M2250 150H2400V300H2250V150Z" fill="black"/>
<path d="M2400 0H2550V150H2400V0Z" fill="black"/>
<path d="M2400 150H2550V300H2400V150Z" fill="black"/>
<path d="M2550 0H2700V150H2550V0Z" fill="black"/>
<path d="M2550 150H2700V300H2550V150Z" fill="black"/>
<path d="M2700 0H2850V150H2700V0Z" fill="black"/>
<path d="M2700 150H2850V300H2700V150Z" fill="black"/>
<path d="M2850 0H3000V150H2850V0Z" fill="black"/>
<path d="M2850 150H3000V300H2850V150Z" fill="black"/>
<path d="M3000 0H3150V150H3000V0Z" fill="black"/>
<path d="M3000 150H3150V300H3000V150Z" fill="black"/>
<path d="M3150 0H3300V150H3150V0Z" fill="black"/>
<path d="M3150 150H3300V300H3150V150Z" fill="black"/>
<path d="M3300 0H3450V150H3300V0Z" fill="black"/>
<path d="M3300 150H3450V300H3300V150Z" fill="black"/>
<path d="M3450 0H3600V150H3450V0Z" fill="black"/>
<path d="M3450 150H3600V300H3450V150Z" fill="black"/>
<path d="M3600 0H3750V150H3600V0Z" fill="black"/>
<path d="M3600 150H3750V300H3600V150Z" fill="black"/>
<path d="M3750 0H3900V150H3750V0Z" fill="black"/>
<path d="M3750 150H3900V300H3750V150Z" fill="black"/>
<path d="M3900 0H4050V150H3900V0Z" fill="black"/>
<path d="M3900 150H4050V300H3900V150Z" fill="black"/>
<path d="M3900 300H4050V450H3900V300Z" fill="black"/>
<path d="M4050 0H4200V150H4050V0Z" fill="black"/>
<path d="M4050 150H4200V300H4050V150Z" fill="black"/>
</svg>
